<svg xmlns="http://www.w3.org/2000/svg" viewBox="0 0 16 16">
  <defs>
    <style>
      .cls-1 {
        fill: #a0a0a0;
      }
    </style>
  </defs>
  <path id="Globe" class="cls-1" d="M16,8A8,8,0,1,1,8,0,8,8,0,0,1,16,8ZM3.844,7.607A11.41,11.41,0,0,1,4.4,4.424l-2.672,0A7.182,7.182,0,0,0,.791,7.607ZM7.609,4.422H5.228a10.562,10.562,0,0,0-.6,3.186H7.609V4.422Zm0-3.632A8.622,8.622,0,0,0,5.546,3.633H7.609ZM2.245,3.633H4.7A10.023,10.023,0,0,1,6.328.978,7.178,7.178,0,0,0,2.245,3.633ZM15.209,7.607a7.184,7.184,0,0,0-.937-3.186l-2.673,0a11.4,11.4,0,0,1,.557,3.183Zm-6.819,0h2.985a10.562,10.562,0,0,0-.6-3.186H8.391Zm0-3.974h2.064A8.625,8.625,0,0,0,8.391.79ZM9.672.978A10.016,10.016,0,0,1,11.3,3.633h2.451A7.176,7.176,0,0,0,9.672.978ZM.791,8.393a7.18,7.18,0,0,0,.937,3.186l2.672,0a11.409,11.409,0,0,1-.556-3.183H.791Zm6.819,0H4.624a10.561,10.561,0,0,0,.6,3.186H7.609Zm0,3.974H5.545A8.62,8.62,0,0,0,7.609,15.21V12.367ZM6.328,15.022A10.023,10.023,0,0,1,4.7,12.367H2.245A7.178,7.178,0,0,0,6.328,15.022Zm5.828-6.629a11.392,11.392,0,0,1-.557,3.183l2.673,0a7.178,7.178,0,0,0,.937-3.186H12.156ZM8.391,11.578h2.382a10.566,10.566,0,0,0,.6-3.186H8.391Zm0,3.632a8.62,8.62,0,0,0,2.064-2.843H8.391Zm5.364-2.843H11.3a10.02,10.02,0,0,1-1.632,2.655A7.178,7.178,0,0,0,13.755,12.367Z"/>
</svg>
